<?xml version="1.0" standalone="no"?>
<!DOCTYPE svg PUBLIC "-//W3C//DTD SVG 20010904//EN"
 "http://www.w3.org/TR/2001/REC-SVG-20010904/DTD/svg10.dtd">
<svg version="1.0" xmlns="http://www.w3.org/2000/svg"
 width="623.000000pt" height="766.000000pt" viewBox="0 0 623.000000 766.000000"
 preserveAspectRatio="xMidYMid meet">

<g transform="translate(0.000000,766.000000) scale(0.100000,-0.100000)"
fill="#000000" stroke="none">
<path d="M2606 6138 c-3 -128 -8 -510 -11 -848 -3 -338 -8 -816 -12 -1062 l-6
-448 567 0 566 0 0 301 0 301 -27 -6 c-16 -3 -83 -8 -150 -12 l-123 -6 0 -134
0 -134 -250 0 -250 0 0 43 c1 71 108 1858 112 1862 3 3 344 85 353 85 1 0 5
-82 9 -182 4 -101 11 -186 14 -189 4 -3 66 0 137 7 72 7 138 13 148 13 16 1
17 23 17 321 l0 320 -544 0 -544 0 -6 -232z"/>
<path d="M1939 6196 c-139 -37 -223 -143 -238 -298 l-6 -69 -50 62 c-57 71
-127 124 -188 140 -67 18 -164 7 -229 -25 -180 -90 -237 -261 -154 -466 l24
-58 -47 -6 c-72 -10 -149 -53 -222 -126 -69 -70 -92 -116 -105 -210 -7 -58 16
-166 56 -264 32 -75 32 -76 68 -76 91 1 1513 88 1519 93 6 6 -13 886 -23 1087
l-6 115 -42 40 c-26 25 -62 47 -95 58 -63 20 -193 22 -262 3z m246 -551 c14
-13 25 -36 25 -50 0 -31 -41 -75 -70 -75 -12 0 -31 5 -42 11 -16 9 -40 5 -112
-16 l-92 -27 -13 -47 c-7 -25 -19 -54 -28 -63 -9 -10 -14 -20 -12 -22 2 -2 66
-33 142 -69 112 -54 144 -65 171 -60 28 4 39 0 60 -20 33 -33 33 -71 1 -102
-31 -32 -69 -32 -102 1 -20 20 -24 32 -20 58 l5 33 -144 68 -144 68 -33 -29
c-17 -16 -71 -66 -118 -112 l-86 -84 -53 67 c-29 36 -56 65 -60 63 -4 -2 -66
-36 -139 -77 -110 -63 -131 -78 -131 -98 0 -32 -43 -73 -75 -73 -33 0 -75 42
-75 75 0 31 41 75 69 75 11 0 31 -5 45 -11 22 -10 39 -4 155 61 72 41 131 77
131 82 0 5 -11 24 -25 43 -51 66 -45 153 14 215 33 35 43 40 84 40 38 0 51 -6
81 -33 l34 -33 41 48 c44 50 86 67 137 54 27 -7 77 -51 85 -74 3 -9 25 -5 87
13 74 23 82 28 82 51 0 32 42 74 75 74 14 0 37 -11 50 -25z"/>
<path d="M4330 5081 c0 -84 -18 -881 -25 -1108 l-6 -193 485 0 486 0 0 680 0
680 -470 0 -470 0 0 -59z m661 -213 c0 -13 6 -202 12 -421 12 -395 12 -398 -8
-402 -27 -5 -408 -36 -410 -32 -2 1 7 189 18 418 l21 416 155 20 c212 28 211
28 212 1z"/>
<path d="M806 4578 c-2 -7 -11 -521 -20 -1143 -9 -621 -19 -1199 -22 -1283
l-6 -152 568 2 569 3 37 515 c20 283 37 527 37 541 1 18 -38 82 -124 204 -69
98 -125 178 -123 180 12 8 216 171 228 182 12 11 19 97 36 481 11 257 19 470
17 475 -2 4 -272 7 -599 7 -467 0 -595 -3 -598 -12z m764 -370 c-1 -50 -57
-628 -61 -633 -5 -4 -401 26 -408 31 -2 2 7 145 20 319 l23 315 213 0 213 0 0
-32z m-29 -970 c0 -13 12 -227 27 -475 15 -249 25 -453 22 -453 -3 0 -115 -9
-248 -21 -134 -11 -246 -19 -248 -16 -7 7 43 957 51 965 7 7 156 17 308 20 84
2 87 1 88 -20z"/>
<path d="M2590 3301 c0 -84 -18 -881 -25 -1108 l-6 -193 485 0 486 0 0 680 0
680 -470 0 -470 0 0 -59z m661 -213 c0 -13 6 -202 12 -421 12 -395 12 -398 -8
-402 -27 -5 -408 -36 -410 -32 -2 1 7 189 18 418 l21 416 155 20 c212 28 211
28 212 1z"/>
<path d="M4055 3350 c4 -6 109 -159 235 -341 l229 -331 -41 -56 c-23 -32 -133
-178 -243 -327 -111 -148 -204 -276 -209 -282 -6 -10 24 -13 138 -13 l145 0
208 265 208 265 47 -97 c26 -54 84 -173 129 -265 l81 -168 144 0 c79 0 144 2
144 4 0 3 -85 155 -190 339 l-190 335 210 328 c116 180 210 331 210 334 0 7
-181 20 -277 20 l-52 0 -147 -245 c-80 -135 -149 -243 -154 -240 -4 2 -78 113
-165 245 l-157 240 -155 0 c-102 0 -152 -3 -148 -10z"/>
<path d="M720 1440 l0 -340 2380 0 2380 0 0 340 0 340 -2380 0 -2380 0 0 -340z
m2500 180 c0 -28 -3 -30 -35 -30 -32 0 -35 2 -35 30 0 28 3 30 35 30 32 0 35
-2 35 -30z m1140 -156 l0 -185 -32 3 -33 3 -3 183 -2 182 35 0 35 0 0 -186z
m948 4 c-3 -183 -3 -183 -26 -186 -13 -2 -30 2 -38 8 -11 10 -17 10 -28 1 -22
-18 -92 -16 -122 4 -70 46 -71 194 0 240 26 17 91 17 129 1 15 -7 17 -2 17 53
l0 61 35 0 35 0 -2 -182z m-2248 122 c0 -36 3 -40 25 -40 14 0 26 -4 27 -10 4
-29 1 -35 -22 -40 -23 -5 -25 -11 -28 -74 -3 -72 7 -96 40 -96 14 0 19 -6 16
-22 -2 -19 -10 -24 -47 -26 -70 -5 -81 12 -81 125 0 86 -1 93 -20 93 -15 0
-20 7 -20 25 0 18 5 25 20 25 16 0 20 7 20 33 0 41 5 47 42 47 26 0 28 -3 28
-40z m-224 -40 c14 0 36 -11 49 -25 24 -23 25 -31 25 -135 l0 -110 -28 0 c-15
0 -32 4 -38 10 -6 6 -25 4 -53 -6 -50 -17 -104 -6 -121 26 -15 28 -12 77 5 94
17 17 77 36 112 36 18 0 53 23 53 35 0 2 -7 11 -16 19 -22 22 -61 20 -76 -4
-16 -25 -78 -29 -78 -5 0 22 35 54 67 61 16 3 33 7 38 9 6 2 16 2 23 -1 8 -2
25 -4 38 -4z m-1707 -31 c41 -40 40 -59 -2 -59 -21 0 -36 7 -45 20 -15 25 -63
26 -85 3 -33 -37 -34 -105 -1 -137 24 -25 71 -20 90 9 11 17 25 25 45 25 39 0
38 -23 -5 -66 -33 -33 -54 -39 -116 -34 -112 9 -149 174 -55 248 21 17 41 22
86 22 51 0 61 -3 88 -31z m281 16 c40 -20 64 -69 63 -127 -1 -83 -49 -130
-132 -130 -60 0 -105 24 -126 68 -29 62 -12 142 40 182 33 27 111 30 155 7z
m320 0 c40 -20 64 -69 63 -127 -1 -83 -49 -130 -132 -130 -60 0 -105 24 -126
68 -29 62 -12 142 40 182 33 27 111 30 155 7z m187 4 c8 -8 17 -8 31 0 30 16
89 13 117 -5 27 -18 55 -81 55 -125 0 -43 -24 -95 -54 -115 -30 -19 -102 -22
-119 -5 -21 21 -27 11 -27 -44 l0 -55 -35 0 -35 0 0 180 0 180 28 0 c15 0 33
-5 39 -11z m442 -4 c31 -16 61 -69 61 -109 l0 -26 -90 0 c-72 0 -92 -3 -97
-15 -15 -41 77 -76 107 -40 14 17 70 21 70 4 0 -21 -59 -69 -87 -70 -114 -5
-163 38 -163 142 0 46 4 55 39 90 34 34 44 39 85 39 26 0 60 -7 75 -15z m175
-1 c6 -15 8 -15 31 0 13 9 36 16 50 16 21 0 25 -5 25 -30 0 -25 -4 -30 -24
-30 -13 0 -34 -9 -47 -19 -21 -17 -25 -30 -29 -103 l-5 -83 -32 -3 -33 -3 0
135 0 136 29 0 c17 0 31 -6 35 -16z m686 -120 l0 -135 -32 3 -33 3 -3 119 c-1
66 0 126 2 133 3 7 19 13 36 13 l30 0 0 -136z m107 124 c5 -7 19 -46 32 -86
12 -41 26 -71 29 -67 4 3 18 41 32 83 24 73 26 77 58 80 21 2 32 -1 31 -10 0
-7 -19 -67 -42 -133 l-42 -120 -40 0 -40 0 -42 115 c-51 140 -52 150 -14 150
16 0 33 -6 38 -12z m412 -3 c31 -16 61 -69 61 -109 l0 -26 -90 0 c-72 0 -92
-3 -97 -15 -15 -41 77 -76 107 -40 14 17 70 21 70 4 0 -21 -59 -69 -87 -70
-114 -5 -163 38 -163 142 0 46 4 55 39 90 34 34 44 39 85 39 26 0 60 -7 75
-15z m470 -16 c41 -40 40 -59 -2 -59 -21 0 -36 7 -45 20 -15 25 -63 26 -85 3
-33 -37 -34 -105 -1 -137 24 -25 71 -20 90 9 11 17 25 25 45 25 39 0 38 -23
-5 -66 -33 -33 -54 -39 -116 -34 -112 9 -149 174 -55 248 21 17 41 22 86 22
51 0 61 -3 88 -31z m411 16 c40 -20 64 -69 63 -127 -1 -83 -49 -130 -132 -130
-60 0 -105 24 -126 68 -29 62 -12 142 40 182 33 27 111 30 155 7z m190 -85 c3
-52 9 -101 13 -107 12 -18 62 -16 78 3 9 11 16 52 19 108 l5 91 30 0 30 0 3
-132 3 -133 -35 0 c-19 0 -36 5 -38 10 -2 7 -17 5 -43 -6 -50 -21 -106 -7
-123 31 -13 28 -17 217 -5 229 4 4 19 6 33 4 24 -3 25 -5 30 -98z"/>
<path d="M5144 1492 c-18 -12 -34 -49 -34 -80 0 -68 79 -110 114 -60 23 33 21
103 -4 128 -20 20 -56 26 -76 12z"/>
<path d="M2780 1396 c-38 -9 -45 -15 -45 -35 0 -54 80 -53 98 2 13 39 0 47
-53 33z"/>
<path d="M1291 1474 c-31 -40 -24 -112 13 -136 21 -14 63 -8 80 11 22 24 23
93 2 126 -23 34 -68 34 -95 -1z"/>
<path d="M1611 1474 c-31 -40 -24 -112 13 -136 21 -14 63 -8 80 11 22 24 23
93 2 126 -23 34 -68 34 -95 -1z"/>
<path d="M1940 1480 c-25 -25 -27 -95 -4 -128 19 -27 75 -30 95 -5 21 25 18
107 -5 132 -24 26 -60 27 -86 1z"/>
<path d="M2246 1481 c-26 -28 -12 -41 44 -41 56 0 65 8 44 38 -19 28 -65 29
-88 3z"/>
<path d="M3626 1481 c-26 -28 -12 -41 44 -41 56 0 65 8 44 38 -19 28 -65 29
-88 3z"/>
<path d="M4501 1474 c-31 -40 -24 -112 13 -136 21 -14 63 -8 80 11 22 24 23
93 2 126 -23 34 -68 34 -95 -1z"/>
</g>
</svg>
